<svg width="167" height="54" viewBox="0 0 167 54" fill="none" xmlns="http://www.w3.org/2000/svg">
<path d="M84.8895 38.7055H84.5949C83.7687 38.8071 82.9931 39.1579 82.3714 39.711C82.4929 39.1451 82.5525 38.5676 82.5492 37.9888C82.4789 36.6198 82.2816 35.2603 81.96 33.9277L81.9211 33.7277C81.6988 32.8289 81.5555 31.9125 81.493 30.9888C81.4618 30.1438 81.723 29.3139 82.2324 28.6388L81.3541 28.0833C79.225 29.5055 77.0571 32.2555 75.4116 34.4944C72.4488 38.5221 70.7922 40.4333 69.408 40.4333C69.3072 40.4382 69.2065 40.4209 69.1131 40.3827C69.0197 40.3444 68.9359 40.2862 68.8675 40.212C68.7991 40.1378 68.7478 40.0495 68.7173 39.9534C68.6868 39.8572 68.6778 39.7555 68.691 39.6555C68.691 38.961 69.3079 37.8666 69.9583 36.7055C70.6977 35.3999 71.4593 34.0499 71.4593 33.0555C71.4593 31.9777 70.6755 31.1888 69.9862 30.4944C69.2969 29.7999 68.8188 29.2666 68.8188 28.6388C68.8236 28.4677 68.8498 28.2979 68.8966 28.1333C68.8966 28.0999 68.8966 28.061 68.8966 28.0277L68.0127 27.4721C66.7842 30.0333 65.0499 32.0166 63.3655 32.7833C63.1654 30.561 61.9258 29.3499 59.7801 29.3499C57.6343 29.3499 55.6275 30.7166 54.3935 31.8666C53.1803 32.8114 51.7094 33.3672 50.1743 33.461H49.9964C49.9964 33.3166 49.9964 33.1388 49.9964 33.0333C49.9964 30.761 48.6123 29.3555 46.3887 29.3555C43.0534 29.3555 39.6235 32.2555 37.7946 36.5777C35.5266 39.0444 32.9751 40.3499 30.4014 40.3499C29.0394 40.3499 28.0499 39.8888 27.4496 38.9777C26.9599 38.1366 26.7243 37.1719 26.7714 36.1999C26.8393 33.5332 27.6665 30.9412 29.1562 28.7277C30.1153 28.5847 31.0614 28.3655 31.9856 28.0721C31.7213 28.5898 31.5715 29.1582 31.5465 29.7388C31.5465 31.5444 32.8139 32.6721 34.8818 32.6721C35.756 32.6665 36.6191 32.476 37.4144 32.1131C38.2096 31.7502 38.9189 31.2231 39.4957 30.5666C40.6676 29.2836 41.3264 27.6147 41.3468 25.8777C41.3731 25.2799 41.2795 24.6829 41.0713 24.1219C40.8632 23.5609 40.5449 23.0472 40.135 22.611C39.2789 21.761 38.0281 21.3333 36.4272 21.3333C32.6805 21.3333 28.6003 23.5944 25.5151 27.3888C24.1865 27.0555 23.4528 26.2777 23.4528 25.261C23.4468 25.0654 23.4829 24.8708 23.5587 24.6904C23.6345 24.5099 23.7482 24.3479 23.8921 24.2151C24.036 24.0824 24.2066 23.9821 24.3927 23.921C24.5787 23.8599 24.7757 23.8395 24.9703 23.861H25.1537L25.1204 23.8277C24.885 23.5571 24.5936 23.3409 24.2662 23.1942C23.9389 23.0474 23.5836 22.9735 23.2248 22.9777C21.4738 22.9777 20.6899 24.161 20.6899 25.3277C20.6899 26.5944 21.7072 28.1055 24.5812 28.661C22.6356 31.4944 21.5182 34.6166 21.5182 37.2332C21.5182 41.4777 23.8419 43.8999 27.8832 43.8999C32.4137 43.8999 35.7156 40.9888 37.3333 39.2166C37.3188 39.3904 37.3188 39.565 37.3333 39.7388C37.3333 41.811 38.5562 43.8999 41.2801 43.8999C45.6327 43.8999 48.9736 39.1999 49.913 34.7721H49.9686C50.8859 34.7477 51.7914 34.5595 52.6425 34.2166C51.5268 35.8844 50.8763 37.8194 50.758 39.8221C50.7226 40.8546 51.0622 41.8649 51.7141 42.6666C52.0849 43.0752 52.5409 43.3975 53.05 43.6106C53.5591 43.8237 54.1089 43.9225 54.6603 43.8999C57.4009 43.8999 59.3798 42.1055 60.5639 40.6055C62.0081 38.6929 62.9778 36.4653 63.3933 34.1055C65.1086 33.3777 66.5691 32.1577 67.5902 30.5999C67.6458 30.6777 67.6903 30.7499 67.7403 30.8333C67.7904 30.9166 67.8793 31.061 67.9683 31.1833C68.3547 31.5758 68.6042 32.0823 68.6798 32.6277C68.6798 33.361 67.896 34.4277 67.0122 35.661C65.8059 37.3277 64.4329 39.1721 64.3828 40.9499C64.3565 41.3386 64.4094 41.7287 64.5384 42.0963C64.6674 42.464 64.8698 42.8016 65.1333 43.0888C65.4004 43.3554 65.719 43.5648 66.0698 43.7042C66.4205 43.8437 66.796 43.9103 67.1733 43.8999C70.6254 43.8999 72.9491 40.5221 75.0059 37.5444L75.0392 37.4888C75.2726 37.1555 75.5117 36.8055 75.7452 36.4777L76.3511 35.5999L76.39 35.5499L76.6401 35.1833C77.6463 33.6255 78.7609 32.1404 79.9755 30.7388C79.7839 31.8677 79.6854 33.0105 79.6808 34.1555C79.7299 35.6688 79.5671 37.1816 79.1972 38.6499C78.9471 39.4499 78.4079 40.3999 77.2683 40.3999C77.1263 40.405 76.9848 40.3815 76.8521 40.331C76.7194 40.2804 76.5981 40.2037 76.4956 40.1055C76.3776 39.9781 76.2863 39.8285 76.2271 39.6653C76.168 39.5022 76.142 39.3288 76.1509 39.1555C76.1792 38.7223 76.3087 38.3018 76.529 37.9277V37.8944H76.49C75.7941 38.0503 75.1698 38.4328 74.715 38.9819C74.2602 39.5309 74.0008 40.2153 73.9775 40.9277C73.9775 42.6944 75.3338 43.8833 77.3461 43.8833C78.2643 43.8992 79.1706 43.6752 79.9755 43.2333C80.7431 42.7994 81.3731 42.1582 81.7932 41.3833C82.4149 40.9187 83.1683 40.6638 83.9445 40.6555C84.0535 40.6442 84.1634 40.6442 84.2725 40.6555L84.9673 38.6888L84.8895 38.7055ZM56.2946 40.461C55.2218 40.461 54.577 39.6499 54.577 38.2999C54.673 36.5954 55.2322 34.9493 56.1945 33.5388C57.3063 31.8721 58.6905 30.911 60.0024 30.911C60.1614 30.9092 60.3195 30.9355 60.4694 30.9888C60.1923 31.3679 60.0424 31.8249 60.0413 32.2944C60.039 32.7336 60.1839 33.161 60.4529 33.5083C60.7219 33.8557 61.0995 34.1031 61.5256 34.211C60.9697 36.811 58.974 40.461 56.2946 40.461ZM42.8699 40.461C41.3579 40.461 41.2022 38.9333 41.2022 38.2832C41.2022 35.4332 43.6704 30.8999 46.5944 30.8999C46.7691 30.9013 46.9429 30.9256 47.1113 30.9721C46.8122 31.3714 46.6504 31.8567 46.65 32.3555C46.6517 32.8038 46.7891 33.2411 47.0441 33.6099C47.2991 33.9787 47.6597 34.2619 48.0786 34.4221C47.5227 36.8666 45.5437 40.461 42.8755 40.461H42.8699ZM35.8769 29.9333C35.6623 29.9443 35.4479 29.9093 35.2479 29.8307C35.048 29.7521 34.8672 29.6317 34.7177 29.4775C34.5682 29.3234 34.4534 29.139 34.3811 28.9369C34.3087 28.7347 34.2804 28.5194 34.2981 28.3055C34.3748 27.3008 34.8156 26.3586 35.5378 25.6555L35.61 25.5833L35.5155 25.6221C33.7858 26.3754 31.9824 26.947 30.1345 27.3277C31.5965 25.3388 34.1702 23.0388 36.6662 23.0388C37.0374 23.0081 37.411 23.0572 37.7616 23.1829C38.1122 23.3086 38.4318 23.5079 38.6988 23.7675C38.9659 24.027 39.1742 24.3407 39.3098 24.6875C39.4453 25.0342 39.5049 25.406 39.4846 25.7777C39.4846 27.9999 37.8169 29.9333 35.8769 29.9333Z" fill="#C10230"/>
<path d="M102.878 29.5723H99.7432V43.4834H102.878V29.5723Z" fill="#76777A"/>
<path d="M91.8493 40.4945V29.5723H88.7363V43.4834H95.5348L97.3137 40.4945H91.8493Z" fill="#76777A"/>
<path d="M130.373 35.0723H124.697V29.5723H121.584V43.4834H124.697V37.9834H130.373V43.4834H133.491V29.5723H130.373V35.0723Z" fill="#76777A"/>
<path d="M136.643 29.5723V32.5223H139.461V43.4834H142.597V32.5223H144.559L146.321 29.5723H136.643Z" fill="#76777A"/>
<path d="M117.843 35.2055H114.352L112.684 37.9388H115.075V40.161C114.511 40.3799 113.911 40.4875 113.307 40.4777C112.278 40.4393 111.303 40.0036 110.589 39.2624C109.875 38.5211 109.475 37.532 109.475 36.5027C109.475 35.4735 109.875 34.4843 110.589 33.743C111.303 33.0018 112.278 32.5662 113.307 32.5277C114.099 32.5043 114.878 32.7339 115.53 33.1833L117.07 30.6055C115.893 29.8428 114.526 29.4234 113.123 29.3944C112.171 29.3678 111.223 29.5323 110.336 29.8781C109.448 30.2239 108.639 30.7441 107.956 31.4078C107.273 32.0715 106.73 32.8654 106.36 33.7424C105.989 34.6194 105.798 35.5618 105.798 36.5138C105.798 37.4659 105.989 38.4083 106.36 39.2853C106.73 40.1623 107.273 40.9561 107.956 41.6198C108.639 42.2836 109.448 42.8037 110.336 43.1496C111.223 43.4954 112.171 43.6599 113.123 43.6333C114.847 43.6326 116.542 43.1867 118.043 42.3388C118.133 42.2566 118.189 42.1435 118.199 42.0222V35.5555C118.199 35.4596 118.162 35.3674 118.095 35.298C118.029 35.2287 117.939 35.1876 117.843 35.1833" fill="#76777A"/>
<path d="M145.292 42.8111C145.292 42.9441 145.253 43.0741 145.179 43.1846C145.105 43.2952 145 43.3813 144.877 43.4322C144.754 43.4831 144.619 43.4964 144.489 43.4704C144.358 43.4445 144.238 43.3805 144.144 43.2865C144.05 43.1925 143.986 43.0727 143.96 42.9423C143.934 42.8119 143.948 42.6767 143.998 42.5539C144.049 42.4311 144.136 42.3261 144.246 42.2522C144.357 42.1783 144.487 42.1389 144.62 42.1389C144.708 42.1389 144.796 42.1563 144.877 42.1901C144.959 42.2239 145.033 42.2734 145.096 42.3358C145.158 42.3982 145.208 42.4723 145.241 42.5539C145.275 42.6355 145.292 42.7229 145.292 42.8111ZM145.148 42.8111C145.155 42.6989 145.127 42.5873 145.069 42.4911C145.011 42.3949 144.925 42.3186 144.822 42.2723C144.72 42.2259 144.606 42.2118 144.495 42.2316C144.384 42.2515 144.282 42.3045 144.202 42.3835C144.122 42.4626 144.068 42.5641 144.047 42.6745C144.026 42.7849 144.039 42.8991 144.084 43.002C144.129 43.1049 144.205 43.1917 144.301 43.2509C144.396 43.31 144.508 43.3388 144.62 43.3334C144.759 43.3334 144.892 43.2785 144.991 43.1808C145.09 43.083 145.146 42.9502 145.148 42.8111ZM144.742 42.8611L144.87 43.0945V43.1223H144.731L144.609 42.8778H144.548V43.1111H144.436V42.5H144.714C144.764 42.4952 144.813 42.5094 144.852 42.5397C144.891 42.5699 144.918 42.614 144.925 42.6629C144.933 42.7118 144.922 42.7619 144.894 42.8029C144.866 42.8438 144.824 42.8726 144.776 42.8834L144.742 42.8611ZM144.776 42.7C144.776 42.6908 144.774 42.6816 144.77 42.6732C144.766 42.6647 144.761 42.6571 144.754 42.6508C144.747 42.6445 144.739 42.6398 144.731 42.6368C144.722 42.6337 144.713 42.6326 144.703 42.6334H144.57V42.7778H144.703C144.723 42.7764 144.741 42.7676 144.755 42.7531C144.768 42.7387 144.776 42.7197 144.776 42.7Z" fill="#76777A"/>
<path d="M95.2681 25.1444L88.2695 14.9166L86.7686 17.1111L83.0997 11.7444L73.9331 25.1444H95.2681Z" fill="#0071CE"/>
</svg>
