<svg width="28" height="28" viewBox="0 0 28 28" fill="none" xmlns="http://www.w3.org/2000/svg">
<path d="M3 11.1909L21 6.19092V18.1909L3 14.1909V11.1909Z" stroke="#C10230" stroke-width="2" stroke-linecap="round" stroke-linejoin="round"/>
<path d="M11.6002 16.9909C11.4952 17.3717 11.3161 17.7281 11.0733 18.0398C10.8305 18.3514 10.5287 18.6122 10.1851 18.8072C9.84156 19.0022 9.46294 19.1276 9.0709 19.1763C8.67885 19.2249 8.28105 19.1959 7.90022 19.0909C7.51938 18.9858 7.16297 18.8068 6.85133 18.564C6.53969 18.3212 6.27892 18.0194 6.08392 17.6758C5.88892 17.3322 5.7635 16.9536 5.71482 16.5615C5.66614 16.1695 5.69516 15.7717 5.80022 15.3909" stroke="#C10230" stroke-width="2" stroke-linecap="round" stroke-linejoin="round"/>
</svg>
