<svg width="28" height="28" viewBox="0 0 28 28" fill="none" xmlns="http://www.w3.org/2000/svg">
<path d="M13.125 25.375L14.875 25.375C15.3391 25.375 15.7842 25.1906 16.1124 24.8624C16.4406 24.5342 16.625 24.0891 16.625 23.625L16.625 11.375C16.625 10.9109 16.4406 10.4658 16.1124 10.1376C15.7842 9.80937 15.3391 9.625 14.875 9.625L13.125 9.625M7.875 25.375L6.125 25.375C5.66087 25.375 5.21575 25.1906 4.88756 24.8624C4.55937 24.5342 4.375 24.0891 4.375 23.625L4.375 11.375C4.375 10.9109 4.55937 10.4658 4.88756 10.1376C5.21575 9.80937 5.66087 9.625 6.125 9.625L7.875 9.625L7.875 25.375Z" stroke="white" stroke-linecap="round" stroke-linejoin="round"/>
<path d="M13.125 9.625C13.125 10.3212 12.8484 10.9889 12.3562 11.4812C11.8639 11.9734 11.1962 12.25 10.5 12.25C9.80381 12.25 9.13613 11.9734 8.64384 11.4812C8.15156 10.9889 7.875 10.3212 7.875 9.625" stroke="white" stroke-linecap="round" stroke-linejoin="round"/>
<path d="M13.125 25.375C13.125 24.6788 12.8484 24.0111 12.3562 23.5188C11.8639 23.0266 11.1962 22.75 10.5 22.75C9.80381 22.75 9.13613 23.0266 8.64384 23.5188C8.15156 24.0111 7.875 24.6788 7.875 25.375" stroke="white" stroke-linecap="round" stroke-linejoin="round"/>
<path d="M4.375 16.625L6.125 16.625" stroke="white" stroke-linecap="round" stroke-linejoin="round"/>
<path d="M14.875 16.625L16.625 16.625" stroke="white" stroke-linecap="round" stroke-linejoin="round"/>
<path d="M9.625 16.625L11.375 16.625" stroke="white" stroke-linecap="round" stroke-linejoin="round"/>
</svg>
