<svg width="52" height="52" viewBox="0 0 52 52" fill="none" xmlns="http://www.w3.org/2000/svg">
<path d="M33.6665 39.75V36.9167C33.6665 35.4138 33.0695 33.9724 32.0068 32.9097C30.9441 31.847 29.5027 31.25 27.9998 31.25H18.0832C16.5803 31.25 15.1389 31.847 14.0762 32.9097C13.0135 33.9724 12.4165 35.4138 12.4165 36.9167V39.75" stroke="#C10230" stroke-width="2" stroke-linecap="round" stroke-linejoin="round"/>
<path d="M23.0417 25.5833C26.1713 25.5833 28.7083 23.0463 28.7083 19.9167C28.7083 16.7871 26.1713 14.25 23.0417 14.25C19.9121 14.25 17.375 16.7871 17.375 19.9167C17.375 23.0463 19.9121 25.5833 23.0417 25.5833Z" stroke="#C10230" stroke-width="2" stroke-linecap="round" stroke-linejoin="round"/>
<path d="M39.3335 21.3333V29.8333" stroke="#C10230" stroke-width="2" stroke-linecap="round" stroke-linejoin="round"/>
<path d="M43.5835 25.5833H35.0835" stroke="#C10230" stroke-width="2" stroke-linecap="round" stroke-linejoin="round"/>
<circle cx="26" cy="26" r="25" stroke="#C10230" stroke-width="2" stroke-linecap="round"/>
</svg>
